<?xml version="1.0" encoding="UTF-8"?>
<svg id="Ebene_1" data-name="Ebene 1" xmlns="http://www.w3.org/2000/svg" viewBox="0 0 474.52 479.87">
  <defs>
    <style>
      .cls-1 {
        fill: none;
        stroke: #000;
        stroke-linecap: round;
        stroke-linejoin: round;
        stroke-width: 23px;
      }
    </style>
  </defs>
  <path class="cls-1" d="M138.56,124.56v186.75c0,16.25-13.9,28.99-30.09,27.65-6.62-.55-13.91-.51-21.7.53-9.67,1.29-44.38,5.9-63.31,35.25-3.16,4.9-17.81,27.61-9.35,52.52,6.21,18.3,21.36,27.36,27.34,30.94,30.37,18.16,64.28,7.06,72.66,4.32,9.74-3.19,34.46-11.69,49.64-36.69,6.57-10.82,9.27-21.3,10.46-28.72.23-1.41.33-2.83.33-4.25v-184.29c0-22.31,24.97-35.51,43.41-22.95l34.94,23.8c10.95,7.46,25.63,6.15,35.09-3.13l86.11-84.48c17.57-17.24,47.22-4.79,47.22,19.83v76.56c0,15.88-13.19,28.75-29.05,27.99-5.07-.24-10.51-.13-16.27.51-9.24,1.03-37.66,4.22-58.27,27.34-5.44,6.1-17.25,19.34-17.99,39.57-.15,4.13-.3,21.11,11.51,35.97,12.39,15.59,30.02,18.87,44.6,21.58,8.08,1.5,25.63,4.55,46.76-2.16,6.95-2.21,28.85-10.09,45.32-32.37,7.75-10.48,11.82-20.81,14.03-28.35.73-2.49,1.08-5.08,1.08-7.67V39.29c0-18.79-18.26-32.15-36.17-26.47h0c-4.32,1.37-8.24,3.78-11.42,7.01l-127.04,129.28c-9.61,9.78-24.91,11.08-36.03,3.08l-69.75-50.19c-7.12-5.13-16.25-6.58-24.62-3.93l-.06.02c-11.54,3.66-19.38,14.37-19.38,26.47Z"/>
</svg>